<svg width="50" height="51" viewBox="0 0 50 51" fill="none" xmlns="http://www.w3.org/2000/svg">
<path d="M48.5352 35.6016L37.5977 30.9141C37.3047 30.8164 37.0117 30.7188 36.6211 30.7188C35.9375 30.7188 35.2539 31.1094 34.8633 31.5977L29.9805 37.5547C22.3633 33.9414 16.3086 27.8867 12.6953 20.2695L18.6523 15.3867C19.1406 14.9961 19.5312 14.3125 19.5312 13.5312C19.5312 13.2383 19.4336 12.9453 19.3359 12.6523L14.6484 1.71484C14.2578 0.835938 13.3789 0.25 12.4023 0.25C12.3047 0.25 12.1094 0.347656 11.9141 0.347656L1.75781 2.69141C0.683594 2.98438 0 3.86328 0 4.9375C0 30.0352 20.2148 50.25 45.3125 50.25C46.3867 50.25 47.2656 49.5664 47.5586 48.4922L49.9023 38.3359C49.9023 38.1406 49.9023 37.9453 49.9023 37.8477C49.9023 36.8711 49.3164 35.9922 48.5352 35.6016Z" fill="#291712"/>
</svg>
